<svg width="187" height="30" viewBox="0 0 187 30" fill="none" xmlns="http://www.w3.org/2000/svg">
<path d="M10.214 29.63C8.534 29.63 6.896 29.448 5.3 29.084C3.704 28.748 2.332 28.23 1.184 27.53C0.82 27.334 0.638 27.124 0.638 26.9C0.638 26.732 0.694 26.578 0.806 26.438L1.982 24.38C2.122 24.128 2.262 24.002 2.402 24.002C2.542 24.002 2.724 24.072 2.948 24.212C3.788 24.716 4.824 25.136 6.056 25.472C7.288 25.808 8.422 25.976 9.458 25.976C11.054 25.976 12.188 25.822 12.86 25.514C13.56 25.178 13.91 24.59 13.91 23.75C13.91 23.274 13.77 22.896 13.49 22.616C13.238 22.308 12.846 22.042 12.314 21.818C11.782 21.594 10.9 21.286 9.668 20.894C9.668 20.894 9.206 20.74 8.282 20.432C6.686 19.9 5.412 19.382 4.46 18.878C3.508 18.374 2.766 17.744 2.234 16.988C1.73 16.204 1.478 15.224 1.478 14.048C1.478 12.144 2.276 10.702 3.872 9.722C5.496 8.714 7.596 8.21 10.172 8.21C13.308 8.21 16.01 8.882 18.278 10.226C18.642 10.422 18.824 10.632 18.824 10.856C18.824 10.996 18.754 11.178 18.614 11.402L17.48 13.208C17.312 13.46 17.172 13.586 17.06 13.586C16.948 13.586 16.78 13.516 16.556 13.376C15.828 12.928 14.946 12.578 13.91 12.326C12.902 12.046 11.88 11.906 10.844 11.906C9.444 11.906 8.408 12.06 7.736 12.368C7.092 12.648 6.77 13.208 6.77 14.048C6.77 14.776 7.148 15.35 7.904 15.77C8.688 16.19 10.032 16.694 11.936 17.282L13.322 17.702C15.506 18.402 17.032 19.228 17.9 20.18C18.796 21.132 19.244 22.322 19.244 23.75C19.244 25.486 18.474 26.9 16.934 27.992C15.422 29.084 13.182 29.63 10.214 29.63ZM32.0471 29.63C29.6671 29.63 27.8751 28.972 26.6711 27.656C25.4671 26.34 24.8651 24.52 24.8651 22.196V12.788H22.4711C21.9111 12.788 21.5331 12.69 21.3371 12.494C21.1691 12.298 21.0851 11.934 21.0851 11.402V10.268C21.0851 9.736 21.1691 9.372 21.3371 9.176C21.5331 8.952 21.9111 8.84 22.4711 8.84H24.8651V6.53C24.8651 5.942 24.9631 5.396 25.1591 4.892C25.3831 4.36 25.7191 3.702 26.1671 2.918C26.3351 2.582 26.4891 2.372 26.6291 2.288C26.7971 2.176 27.0771 2.12 27.4691 2.12H28.8551C29.3591 2.12 29.7091 2.246 29.9051 2.498C30.1291 2.722 30.2411 3.072 30.2411 3.548V8.84H35.1971C35.7571 8.84 36.1211 8.952 36.2891 9.176C36.4851 9.372 36.5831 9.736 36.5831 10.268V11.402C36.5831 11.934 36.4851 12.298 36.2891 12.494C36.1211 12.69 35.7571 12.788 35.1971 12.788H30.2411V22.028C30.2411 23.316 30.4651 24.254 30.9131 24.842C31.3611 25.402 32.1311 25.682 33.2231 25.682C33.8671 25.682 34.4131 25.612 34.8611 25.472C35.3091 25.304 35.7991 25.038 36.3311 24.674C36.4711 24.562 36.6251 24.506 36.7931 24.506C36.9611 24.506 37.1291 24.632 37.2971 24.884L38.5151 26.9C38.6271 27.04 38.6831 27.194 38.6831 27.362C38.6831 27.558 38.5431 27.754 38.2631 27.95C36.5271 29.07 34.4551 29.63 32.0471 29.63ZM48.6319 29.63C45.8879 29.63 43.7039 28.804 42.0799 27.152C40.4559 25.472 39.6439 23.12 39.6439 20.096C39.6439 17.744 40.1619 15.672 41.1979 13.88C42.2339 12.06 43.7039 10.66 45.6079 9.68C47.5399 8.7 49.7799 8.21 52.3279 8.21C55.8839 8.21 58.8939 9.05 61.3579 10.73V27.866C61.3579 28.286 61.2599 28.58 61.0639 28.748C60.8959 28.916 60.5879 29 60.1399 29H57.8299C57.5219 29 57.2839 28.944 57.1159 28.832C56.9759 28.692 56.8779 28.482 56.8219 28.202L56.4859 26.564C55.6179 27.628 54.5399 28.412 53.2519 28.916C51.9919 29.392 50.4519 29.63 48.6319 29.63ZM50.6479 25.808C52.1319 25.808 53.4339 25.374 54.5539 24.506C55.7019 23.638 56.2759 22.49 56.2759 21.062V12.872C55.6879 12.564 55.0859 12.354 54.4699 12.242C53.8819 12.102 53.1539 12.032 52.2859 12.032C50.0739 12.032 48.2959 12.732 46.9519 14.132C45.6079 15.532 44.9359 17.464 44.9359 19.928C44.9359 21.944 45.3979 23.428 46.3219 24.38C47.2739 25.332 48.7159 25.808 50.6479 25.808ZM76.7125 29.63C72.9885 29.63 70.0765 28.72 67.9765 26.9C65.9045 25.052 64.8685 22.42 64.8685 19.004C64.8685 16.876 65.3445 15 66.2965 13.376C67.2485 11.752 68.6065 10.492 70.3705 9.596C72.1625 8.672 74.2485 8.21 76.6285 8.21C78.3925 8.21 79.8905 8.378 81.1225 8.714C82.3545 9.05 83.5025 9.596 84.5665 10.352C84.8185 10.52 84.9445 10.702 84.9445 10.898C84.9445 11.066 84.8745 11.262 84.7345 11.486L83.6005 13.46C83.4325 13.74 83.2785 13.88 83.1385 13.88C82.9985 13.88 82.8025 13.796 82.5505 13.628C81.6825 13.096 80.8145 12.704 79.9465 12.452C79.1065 12.172 78.0985 12.032 76.9225 12.032C74.8225 12.032 73.1705 12.662 71.9665 13.922C70.7625 15.154 70.1605 16.848 70.1605 19.004C70.1605 21.272 70.7625 22.98 71.9665 24.128C73.1705 25.248 74.9345 25.808 77.2585 25.808C78.4345 25.808 79.4565 25.668 80.3245 25.388C81.1925 25.108 82.0325 24.702 82.8445 24.17C83.0685 24.03 83.2505 23.96 83.3905 23.96C83.5585 23.96 83.7265 24.1 83.8945 24.38L85.1125 26.438C85.2245 26.578 85.2805 26.732 85.2805 26.9C85.2805 27.096 85.1405 27.292 84.8605 27.488C83.7405 28.216 82.5365 28.748 81.2485 29.084C79.9605 29.448 78.4485 29.63 76.7125 29.63ZM91.0105 29C90.4505 29 90.0445 28.874 89.7925 28.622C89.5685 28.37 89.4565 27.992 89.4565 27.488V1.994C89.4565 1.462 89.5685 1.07 89.7925 0.818C90.0445 0.566 90.4505 0.44 91.0105 0.44H93.2365C93.7965 0.44 94.2025 0.566 94.4545 0.818C94.7065 1.07 94.8325 1.462 94.8325 1.994V27.488C94.8325 27.992 94.7065 28.37 94.4545 28.622C94.2305 28.874 93.8245 29 93.2365 29H91.0105ZM104.619 29C104.311 29 104.087 28.972 103.947 28.916C103.807 28.86 103.653 28.734 103.485 28.538L96.0925 20.18C95.8405 19.9 95.6585 19.648 95.5465 19.424C95.4345 19.172 95.3785 18.864 95.3785 18.5C95.3785 18.136 95.4345 17.842 95.5465 17.618C95.6585 17.366 95.8405 17.1 96.0925 16.82L103.233 9.344C103.401 9.148 103.555 9.022 103.695 8.966C103.863 8.882 104.129 8.84 104.493 8.84H108.399C108.595 8.84 108.735 8.896 108.819 9.008C108.931 9.12 108.987 9.26 108.987 9.428C108.987 9.652 108.903 9.848 108.735 10.016L100.377 18.5L109.029 27.824C109.197 27.992 109.281 28.174 109.281 28.37C109.281 28.538 109.225 28.692 109.113 28.832C109.001 28.944 108.847 29 108.651 29H104.619ZM156.608 29.63C154.424 29.63 152.45 29.266 150.686 28.538C148.922 27.782 147.508 26.634 146.444 25.094C145.408 23.526 144.89 21.58 144.89 19.256C144.89 15.644 145.856 12.9 147.788 11.024C149.72 9.148 152.464 8.21 156.02 8.21C159.548 8.21 162.208 9.12 164 10.94C165.82 12.76 166.73 15.392 166.73 18.836C166.73 19.816 166.282 20.306 165.386 20.306H149.972C149.972 22.154 150.616 23.582 151.904 24.59C153.192 25.57 154.984 26.06 157.28 26.06C159.492 26.06 161.48 25.556 163.244 24.548C163.44 24.436 163.594 24.38 163.706 24.38C163.902 24.38 164.056 24.506 164.168 24.758L165.176 26.564C165.26 26.732 165.302 26.886 165.302 27.026C165.302 27.222 165.176 27.404 164.924 27.572C163.776 28.272 162.53 28.79 161.186 29.126C159.87 29.462 158.344 29.63 156.608 29.63ZM161.858 17.198C161.858 15.462 161.368 14.104 160.388 13.124C159.436 12.144 157.994 11.654 156.062 11.654C154.102 11.654 152.59 12.158 151.526 13.166C150.49 14.174 149.972 15.518 149.972 17.198H161.858ZM180.114 29.63C177.734 29.63 175.942 28.972 174.738 27.656C173.534 26.34 172.932 24.52 172.932 22.196V12.788H170.538C169.978 12.788 169.6 12.69 169.404 12.494C169.236 12.298 169.152 11.934 169.152 11.402V10.268C169.152 9.736 169.236 9.372 169.404 9.176C169.6 8.952 169.978 8.84 170.538 8.84H172.932V6.53C172.932 5.942 173.03 5.396 173.226 4.892C173.45 4.36 173.786 3.702 174.234 2.918C174.402 2.582 174.556 2.372 174.696 2.288C174.864 2.176 175.144 2.12 175.536 2.12H176.922C177.426 2.12 177.776 2.246 177.972 2.498C178.196 2.722 178.308 3.072 178.308 3.548V8.84H183.264C183.824 8.84 184.188 8.952 184.356 9.176C184.552 9.372 184.65 9.736 184.65 10.268V11.402C184.65 11.934 184.552 12.298 184.356 12.494C184.188 12.69 183.824 12.788 183.264 12.788H178.308V22.028C178.308 23.316 178.532 24.254 178.98 24.842C179.428 25.402 180.198 25.682 181.29 25.682C181.934 25.682 182.48 25.612 182.928 25.472C183.376 25.304 183.866 25.038 184.398 24.674C184.538 24.562 184.692 24.506 184.86 24.506C185.028 24.506 185.196 24.632 185.364 24.884L186.582 26.9C186.694 27.04 186.75 27.194 186.75 27.362C186.75 27.558 186.61 27.754 186.33 27.95C184.594 29.07 182.522 29.63 180.114 29.63Z" fill="white"/>
</svg>
